# xmcd
# Copyright (C) 1995-1998 Ti Kan
#
# Track frame offsets:
#       150
#       23390
#       50831
#       67182
#       78399
#       94492
#       126676
#       141121
#       161194
#       179389
#       198251
#
# Disc length: 2953 seconds
#
# Revision: 0
# Processed by: cddbd v1.5.2PL0 Copyright (c) Steve Scherf et al.
# Submitted via: CD-Import v1.0
#
DISCID=a40b870b
DTITLE=The Great Park - The Great Park
DYEAR=1900
DGENRE=
TTITLE0=I Do Wrong
TTITLE1=We Could Have, We Should Have, We Didn't
TTITLE2=Blackwater
TTITLE3=And I Don't Know Why
TTITLE4=Pure Black Coal
TTITLE5=The Makings Of A Great Night In
TTITLE6=The Weeping Well
TTITLE7=The Burning Of Two
TTITLE8=Trouble
TTITLE9=Paper Birds
TTITLE10=You Have Painted A Cross On My Ceiling
EXTD=
EXTT0=
EXTT1=
EXTT2=
EXTT3=
EXTT4=
EXTT5=
EXTT6=
EXTT7=
EXTT8=
EXTT9=
EXTT10=
PLAYORDER=
